<svg xmlns="http://www.w3.org/2000/svg"  viewBox="0 0 100 100" width="500px" height="500px"><path d="M21.5,91C15.71,91,11,86.29,11,80.5V58.424c-1.872-1.761-3-4.25-3-6.924v-21 C8,24.71,12.71,20,18.5,20h11.517v-0.5c0-5.79,4.71-10.5,10.5-10.5h23.009c5.79,0,10.5,4.71,10.5,10.5V20H85.5 C91.29,20,96,24.71,96,30.5v21c0,2.674-1.128,5.163-3,6.924V80.5C93,85.557,89.088,91,80.5,91H21.5z" opacity=".35"/><path fill="#f2f2f2" d="M19.5,89C13.71,89,9,84.29,9,78.5V56.424c-1.872-1.761-3-4.25-3-6.924v-21 C6,22.71,10.71,18,16.5,18h11.517v-0.5c0-5.79,4.71-10.5,10.5-10.5h23.009c5.79,0,10.5,4.71,10.5,10.5V18H83.5 C89.29,18,94,22.71,94,28.5v21c0,2.674-1.128,5.163-3,6.924V78.5C91,83.557,87.088,89,78.5,89H19.5z"/><path fill="#9aa2e6" d="M83.5,24.5L66.75,26H33.9l-17.4-1.5c-2.209,0-4,1.791-4,4v21c0,1.657,1.343,3,3,3h1l-1,26 c0,2.209,1.791,4,4,4h59c4.209,0,6-1.791,6-4l-1-26h1c1.657,0,3-1.343,3-3v-21C87.5,26.291,85.709,24.5,83.5,24.5z"/><polygon fill="#9aa2e6" points="87,51 14,51 14,25 34.25,25 33.9,26 67,26 66.6,25 87,25"/><rect width="68" height="3" x="16" y="51" fill="#40396e" opacity=".35"/><rect width="9" height="12" x="27" y="46" fill="#ffc571"/><rect width="5" height="8" x="29" y="48" fill="#ef8630"/><rect width="9" height="12" x="63" y="46" fill="#ffc571"/><rect width="5" height="8" x="65" y="48" fill="#ef8630"/><path fill="none" stroke="#40396e" stroke-linecap="round" stroke-linejoin="round" stroke-miterlimit="10" stroke-width="3" d="M83.5,24.5H65.525v-7c0-2.209-1.791-4-4-4H38.517c-2.209,0-4,1.791-4,4v7H16.5c-2.209,0-4,1.791-4,4v21c0,1.657,1.343,3,3,3l0,0v26 c0,2.209,1.791,4,4,4h59c4.209,0,6-1.791,6-4v-26l0,0c1.657,0,3-1.343,3-3v-21C87.5,26.291,85.709,24.5,83.5,24.5z M36.5,15.5h27v9 h-27V15.5z"/><rect width="4" height="10" x="34" y="16" fill="#40396e"/><rect width="4" height="10" x="62" y="16" fill="#40396e"/><rect width="29" height="3" x="35" y="14" fill="#40396e"/></svg>