<svg xmlns="http://www.w3.org/2000/svg" xmlns:xlink="http://www.w3.org/1999/xlink" viewBox="0,0,256,256" width="100px" height="100px" fill-rule="nonzero"><g fill="none" fill-rule="nonzero" stroke="none" stroke-width="1" stroke-linecap="butt" stroke-linejoin="miter" stroke-miterlimit="10" stroke-dasharray="" stroke-dashoffset="0" font-family="none" font-weight="none" font-size="none" text-anchor="none" style="mix-blend-mode: normal"><g transform="scale(2.56,2.56)"><path d="M18.554,71.802v-42.01c0,-5.796 4.698,-10.494 10.494,-10.494h42.011c5.796,0 10.494,4.698 10.494,10.494v42.011c0,5.796 -4.698,10.494 -10.494,10.494h-42.011c-5.796,0 -10.494,-4.699 -10.494,-10.495z" fill="#000000"></path><path d="M30.5,31.5l26.5,39l12.05,-0.231l-26.55,-38.769z" fill="#ffffff"></path><path d="M69.5,82.5h-39c-7.18,0 -13,-5.82 -13,-13v-39c0,-7.18 5.82,-13 13,-13h39c7.18,0 13,5.82 13,13v39c0,7.18 -5.82,13 -13,13M19.5,30.5v39c0,6.075 4.925,11 11,11h39c6.075,0 11,-4.925 11,-11v-39c0,-6.075 -4.925,-11 -11,-11h-39c-6.075,0 -11,4.925 -11,11" fill="#000000"></path><path d="M30.616,71.392l3.384,0.108l13.03,-15.577l-1.879,-2.156z" fill="#ffffff"></path><path d="M69.5,71h-12.5c-0.165,0 -0.32,-0.082 -0.413,-0.218l-16.387,-24.011c-0.156,-0.229 -0.097,-0.54 0.131,-0.695c0.228,-0.155 0.54,-0.097 0.695,0.131l16.238,23.793h11.282l-26.308,-38h-10.794l3.207,4.719c0.155,0.229 0.096,0.54 -0.132,0.694c-0.23,0.156 -0.54,0.097 -0.695,-0.132l-3.737,-5.5c-0.104,-0.153 -0.115,-0.352 -0.028,-0.516c0.086,-0.162 0.256,-0.265 0.441,-0.265h12c0.164,0 0.318,0.08 0.411,0.216l27,39c0.106,0.152 0.118,0.352 0.032,0.517c-0.087,0.163 -0.257,0.267 -0.443,0.267zM39.517,45.229c-0.157,0 -0.311,-0.073 -0.408,-0.211l-0.644,-0.907c-0.16,-0.225 -0.107,-0.537 0.118,-0.696c0.225,-0.16 0.537,-0.107 0.697,0.118l0.644,0.907c0.16,0.225 0.107,0.537 -0.118,0.696c-0.088,0.063 -0.189,0.093 -0.289,0.093zM37.635,42.5c-0.16,0 -0.317,-0.076 -0.414,-0.219l-2.039,-3c-0.155,-0.229 -0.096,-0.54 0.132,-0.694c0.229,-0.155 0.54,-0.097 0.695,0.132l2.039,3c0.155,0.229 0.096,0.54 -0.132,0.694c-0.086,0.059 -0.184,0.087 -0.281,0.087z" fill="#1d1d1b"></path><path d="M52.435,45.787l1.533,2.175l13.272,-16.284l-3.158,-0.132z" fill="#ffffff"></path><path d="M34,72h-3.5c-0.194,0 -0.371,-0.112 -0.453,-0.288c-0.083,-0.176 -0.056,-0.383 0.068,-0.532l14.937,-17.935c0.101,-0.121 0.246,-0.199 0.409,-0.179c0.157,0.008 0.301,0.089 0.389,0.219l1.593,2.357c0.125,0.185 0.112,0.43 -0.031,0.602l-13.03,15.577c-0.093,0.114 -0.234,0.179 -0.382,0.179zM31.567,71h2.2l12.638,-15.109l-1.01,-1.494z" fill="#1d1d1b"></path><path d="M53.968,48.462c-0.006,0 -0.013,0 -0.019,0c-0.156,-0.006 -0.3,-0.085 -0.39,-0.212l-1.533,-2.176c-0.129,-0.184 -0.121,-0.431 0.021,-0.604l11.646,-14.24c0.094,-0.114 0.233,-0.182 0.381,-0.184l3.442,-0.042c0.193,-0.004 0.373,0.108 0.457,0.284c0.084,0.175 0.059,0.384 -0.065,0.534l-13.554,16.458c-0.095,0.116 -0.237,0.182 -0.386,0.182zM53.062,45.809l0.937,1.329l12.454,-15.121l-2.132,0.026z" fill="#1d1d1b"></path><path d="M66.662,77.5h-33.325c-5.985,0 -10.837,-4.852 -10.837,-10.837v-33.326c0,-5.985 4.852,-10.837 10.837,-10.837h33.663c0.276,0 0.5,0.224 0.5,0.5c0,0.276 -0.224,0.5 -0.5,0.5h-33.663c-5.433,0 -9.837,4.404 -9.837,9.837v33.325c0,5.433 4.405,9.838 9.838,9.838h33.325c5.433,0 9.837,-4.404 9.837,-9.837v-18.663c0,-0.276 0.224,-0.5 0.5,-0.5c0.276,0 0.5,0.224 0.5,0.5v18.662c0,5.986 -4.852,10.838 -10.838,10.838M77,45.079c-0.276,0 -0.5,-0.224 -0.5,-0.5v-4c0,-0.276 0.224,-0.5 0.5,-0.5c0.276,0 0.5,0.224 0.5,0.5v4c0,0.277 -0.224,0.5 -0.5,0.5M77,39.079c-0.276,0 -0.5,-0.224 -0.5,-0.5v-2c0,-0.276 0.224,-0.5 0.5,-0.5c0.276,0 0.5,0.224 0.5,0.5v2c0,0.277 -0.224,0.5 -0.5,0.5" fill="#000000"></path></g></g></svg>